<svg xmlns="http://www.w3.org/2000/svg" viewBox="0 0 606.59 43.51"><defs><style>.cls-1,.cls-2{fill:#212851;}.cls-1{fill-rule:evenodd;}</style></defs><g id="Layer_2" data-name="Layer 2"><g id="Layer_1-2" data-name="Layer 1"><path class="cls-1" d="M49,21.19a10.87,10.87,0,0,0-2,.2,10.75,10.75,0,0,0,0-5.46A10.63,10.63,0,0,0,31.34,9.51a11,11,0,1,0-21,6.6A14,14,0,0,0,0,29.65c0,.44,0,.88.05,1.32L17.3,21.18a2.67,2.67,0,0,0,1.27-1.65l.34-1.29a4.26,4.26,0,0,1-1.56-2.83,4.3,4.3,0,0,1,.13-1.71,4.37,4.37,0,0,1,2.05-2.64A4.36,4.36,0,0,1,26,14.33,4.49,4.49,0,0,1,25.9,16a4.55,4.55,0,0,1-.77,1.52,4.48,4.48,0,0,1-1.29,1.12,4.29,4.29,0,0,1-1.88.55l-.78,2.61a2.69,2.69,0,0,1-1.25,1.57L17.13,25,.66,34.35a14.21,14.21,0,0,0,.83,2.2L26.67,22.26a4.41,4.41,0,0,1,.41-2.53,4.37,4.37,0,0,1,7.72-.22,4.31,4.31,0,0,1,.41,3.32,4.17,4.17,0,0,1-.77,1.53,4.3,4.3,0,0,1-1.29,1.11,4.33,4.33,0,0,1-4.88-.39l-25,14.2A11.77,11.77,0,0,0,5,41l16-9.07,2.81-1.59a2.64,2.64,0,0,1,2-.27l2.29.58a4.23,4.23,0,0,1,1.35-1.2A4.37,4.37,0,0,1,32.77,29a4.39,4.39,0,0,1,3,5.38,4.6,4.6,0,0,1-.77,1.53A4.3,4.3,0,0,1,33.76,37a4.37,4.37,0,0,1-3.32.41,4.42,4.42,0,0,1-2.64-2.06,4.48,4.48,0,0,1-.54-1.68l-.81-.23a2.66,2.66,0,0,0-1.05-.09,2.73,2.73,0,0,0-1,.33l-15.89,9a14.26,14.26,0,0,0,4.2.59H49c5.87,0,10.62-5.61,10.62-11.48A10.62,10.62,0,0,0,49,21.19ZM90.7,19.77a96.88,96.88,0,0,0-10.54-1,8.62,8.62,0,0,0-3.89.55,1.87,1.87,0,0,0-.88,1.73,1.66,1.66,0,0,0,1.18,1.65,46.32,46.32,0,0,0,6.08,1.33c3.26.59,5.58,1.56,7,2.89s2.06,3.51,2.06,6.51q0,9.86-12.21,9.85a52.94,52.94,0,0,1-9.72-1.09l-1.95-.36L68,35a96.8,96.8,0,0,0,10.48,1,9.5,9.5,0,0,0,4-.58,1.86,1.86,0,0,0,1.06-1.73A1.79,1.79,0,0,0,82.47,32a29.68,29.68,0,0,0-5.84-1.34,15,15,0,0,1-7-2.67q-2.31-1.89-2.31-6.72T70.59,14A13.7,13.7,0,0,1,79,11.49a57,57,0,0,1,9.79,1.16l2,.36Zm20.35,4.86q0-3.64-1.15-5.08c-.77-.95-2.12-1.43-4-1.43s-3.28.5-4.07,1.49-1.21,2.67-1.25,5Zm-9,10.25a6.05,6.05,0,0,0,4.1,1.25q5.66,0,10.09-.37l1.7-.18.12,6a53.61,53.61,0,0,1-12.64,1.7q-6.85,0-10-3.65T92.4,27.79q0-16.35,13.43-16.36,13.24,0,13.24,13.75l-.6,5.66H100.6a5.27,5.27,0,0,0,1.49,4Zm27.31,7.69h-8.14V12.16h8.08v1.71a15.27,15.27,0,0,1,7.6-2.44q6.08,0,8.38,3.59t2.31,11.07V42.58h-8.14V26.34a13.83,13.83,0,0,0-.91-5.75c-.61-1.24-1.83-1.86-3.65-1.86a14,14,0,0,0-4.8.85l-.73.25V42.58ZM173,19.77a97.09,97.09,0,0,0-10.54-1,8.59,8.59,0,0,0-3.89.55,1.88,1.88,0,0,0-.89,1.73,1.67,1.67,0,0,0,1.19,1.65A45.9,45.9,0,0,0,165,24.05c3.26.59,5.58,1.56,7,2.89S174,30.45,174,33.45q0,9.86-12.21,9.85a53,53,0,0,1-9.73-1.09l-1.94-.36.24-6.82a97.24,97.24,0,0,0,10.48,1,9.52,9.52,0,0,0,4-.58,1.87,1.87,0,0,0,1.06-1.73A1.8,1.8,0,0,0,164.79,32,29.51,29.51,0,0,0,159,30.65a15,15,0,0,1-7-2.67q-2.31-1.89-2.31-6.72c0-3.23,1.1-5.66,3.28-7.3a13.73,13.73,0,0,1,8.45-2.47,56.77,56.77,0,0,1,9.78,1.16l2,.36Zm11.15,14.41q1.23,2.19,4.46,2.19c2.15,0,3.63-.73,4.47-2.19s1.24-3.75,1.24-6.87-.42-5.4-1.24-6.81-2.32-2.13-4.47-2.13-3.64.71-4.46,2.13-1.25,3.69-1.25,6.81.41,5.41,1.24,6.87ZM177.89,15.6q3.21-4.17,10.75-4.17T199.4,15.6q3.21,4.17,3.22,11.71,0,16-14,16t-14-16Q174.67,19.77,177.89,15.6Zm27.4,27h8.14V0h-8.14Zm30.32-30.41h8.14V42.57h-8.08v-1.7a16.28,16.28,0,0,1-7.6,2.44q-6.31,0-8.5-3.5T217.38,28.1V12.16h8.14V28.22q0,4.5.73,6.14c.49,1.1,1.66,1.65,3.52,1.65a14.73,14.73,0,0,0,5-.86l.79-.24Zm33.84,7.61a96.88,96.88,0,0,0-10.54-1,8.62,8.62,0,0,0-3.89.55,1.87,1.87,0,0,0-.88,1.73,1.66,1.66,0,0,0,1.18,1.65,46.32,46.32,0,0,0,6.08,1.33c3.26.59,5.58,1.56,7,2.89s2.07,3.51,2.07,6.51q0,9.86-12.21,9.85a52.76,52.76,0,0,1-9.72-1.09l-2-.36.25-6.82a96.8,96.8,0,0,0,10.48,1,9.5,9.5,0,0,0,4-.58,1.87,1.87,0,0,0,1.06-1.73A1.79,1.79,0,0,0,261.22,32a29.68,29.68,0,0,0-5.84-1.34,15,15,0,0,1-7-2.67q-2.3-1.89-2.3-6.72t3.28-7.3a13.68,13.68,0,0,1,8.44-2.47,56.77,56.77,0,0,1,9.78,1.16l2,.36Z"/><path class="cls-2" d="M321.14,11.53a56.4,56.4,0,0,0-8.48.64l-.21,0V42.89l.22,0a63.24,63.24,0,0,0,7.23.37c6.07,0,10.83-1.56,13.78-4.5s4.5-7.09,4.5-12.13c0-4.76-1.49-8.54-4.42-11.22S326.82,11.53,321.14,11.53Zm-.46,28.06a29.6,29.6,0,0,1-3.76-.19V15.54a22.1,22.1,0,0,1,4.4-.37c4.05,0,7.16,1.07,9.25,3.18s3,4.83,2.95,8.44C333.52,35,329,39.59,320.68,39.59Z"/><path class="cls-2" d="M352.48,19.92c-6.7,0-11.2,4.81-11.2,12,0,6.83,4.46,11.61,10.84,11.61,5.59,0,11.24-3.71,11.24-12C363.36,24.59,359,19.92,352.48,19.92ZM352.3,40c-3.74,0-6.46-3.47-6.46-8.24,0-4.15,2-8.33,6.55-8.33s6.37,4.27,6.37,8.24C358.76,36.49,356,40,352.3,40Z"/><path class="cls-2" d="M378.44,23.66a8.93,8.93,0,0,1,4.53,1l.28.15,1.06-3.6-.19-.1A13.84,13.84,0,0,0,378.44,20c-7.13,0-12.11,4.92-12.11,12,0,6.89,4.52,11.52,11.25,11.52a15.09,15.09,0,0,0,6.45-1.3l.17-.09-.79-3.5-.28.12a11.08,11.08,0,0,1-4.82,1.08c-4.44,0-7.42-3.22-7.42-8S373.85,23.66,378.44,23.66Z"/><path class="cls-2" d="M407.35,36.73V20.42h-4.52v13.8a5.46,5.46,0,0,1-.35,2,5.53,5.53,0,0,1-5.06,3.5c-3.15,0-4.67-2.22-4.67-6.78V20.42h-4.52V33.58c0,9,5.5,9.93,7.87,9.93a8.5,8.5,0,0,0,7.18-3.71l.2,3.21h4.07l0-.27C407.4,41.17,407.35,39.26,407.35,36.73Z"/><path class="cls-2" d="M438,19.92a7.85,7.85,0,0,0-5,1.6,9.43,9.43,0,0,0-2.33,2.6,6.77,6.77,0,0,0-6.33-4.2,7.78,7.78,0,0,0-6.85,3.71l-.17-3.21h-4l0,.27c.12,1.69.18,3.48.18,6V43h4.42V29.43a5.11,5.11,0,0,1,.31-1.88A5.27,5.27,0,0,1,423,23.71c2.73,0,4.36,2.17,4.36,5.81V43h4.42V29.11a6.43,6.43,0,0,1,.31-1.92,5,5,0,0,1,4.51-3.48c3.75,0,4.54,3.56,4.54,6.54V43h4.42V29.75C445.53,22.5,441.66,19.92,438,19.92Z"/><path class="cls-2" d="M460.57,19.92c-6.25,0-10.61,5-10.61,12.16,0,6.91,4.36,11.38,11.11,11.38a18.16,18.16,0,0,0,7.45-1.39l.19-.08-.8-3.37-.28.12a14.17,14.17,0,0,1-6,1.12c-4.43,0-7.15-2.67-7.32-7.17h15.48l.05-.4a14,14,0,0,0,.11-1.72C469.94,25.66,467.49,19.92,460.57,19.92Zm-6.2,9.4c.36-2.36,1.94-6,5.88-6a4.89,4.89,0,0,1,3.65,1.38,7,7,0,0,1,1.67,4.64Z"/><path class="cls-2" d="M485.66,19.92a8.38,8.38,0,0,0-7.18,3.71l-.2-3.21h-4.06l0,.27c.12,1.69.18,3.48.18,6V43h4.51V29.48a5.81,5.81,0,0,1,.26-1.8,5.45,5.45,0,0,1,5.15-3.93c4,0,4.86,3.41,4.86,6.28V43h4.51V29.57C493.71,20.39,487,19.92,485.66,19.92Z"/><path class="cls-2" d="M504.89,14l-4.42,1.18v5.23h-3.42V24h3.42V35.77c0,2.9.51,4.78,1.61,5.92a5.8,5.8,0,0,0,4.53,1.77,10.25,10.25,0,0,0,3.65-.56l.16-.07-.21-3.5-.3.08a8.58,8.58,0,0,1-2.26.27c-1.93,0-2.76-1.21-2.76-4V24h5.75V20.42h-5.75Z"/><path class="cls-2" d="M530.67,37.46V29.2c0-4.23-1.5-9.28-8.64-9.28a13.89,13.89,0,0,0-7.39,2l-.17.11,1.08,3.13.27-.17a10.76,10.76,0,0,1,5.61-1.6c3.17,0,4.77,1.63,4.77,4.86v.2c-5.18,0-9.06,1.15-11.22,3.3a7,7,0,0,0-2.06,5.17c0,3.17,2.2,6.59,7,6.59a8.53,8.53,0,0,0,6.69-3l.29,2.55h4.18l-.06-.3A30.48,30.48,0,0,1,530.67,37.46ZM521,40a3.31,3.31,0,0,1-3.54-3.58,3.74,3.74,0,0,1,1.11-2.8c1.31-1.28,3.78-1.93,7.34-1.93h.4v3.59a3.94,3.94,0,0,1-.21,1.2A5.28,5.28,0,0,1,521,40Z"/><path class="cls-2" d="M541.8,14l-4.42,1.18v5.23H534V24h3.42V35.77c0,2.9.52,4.78,1.61,5.92a5.8,5.8,0,0,0,4.53,1.77,10.25,10.25,0,0,0,3.65-.56l.17-.07-.22-3.5-.29.08a8.71,8.71,0,0,1-2.26.27c-1.94,0-2.77-1.21-2.77-4V24h14.28V20.42H541.8Z"/><path class="cls-2" d="M553.83,11.71a2.7,2.7,0,0,0-2.76,2.76,2.63,2.63,0,0,0,2.67,2.71,2.89,2.89,0,0,0,2.1-.82,2.62,2.62,0,0,0,.7-1.9A2.61,2.61,0,0,0,553.83,11.71Z"/><rect class="cls-2" x="551.57" y="20.42" width="4.52" height="22.58"/><path class="cls-2" d="M571.85,19.92c-6.7,0-11.2,4.81-11.2,12,0,6.83,4.45,11.61,10.83,11.61,5.6,0,11.25-3.71,11.25-12C582.73,24.59,578.36,19.92,571.85,19.92ZM571.67,40c-3.75,0-6.46-3.47-6.46-8.24,0-4.15,2-8.33,6.55-8.33,4.37,0,6.36,4.27,6.36,8.24C578.12,36.49,575.41,40,571.67,40Z"/><path class="cls-2" d="M598.54,19.92a8.36,8.36,0,0,0-7.18,3.71l-.2-3.21h-4.07l0,.27c.13,1.69.18,3.48.18,6V43h4.52V29.48a5.52,5.52,0,0,1,.26-1.8,5.44,5.44,0,0,1,5.15-3.93c4,0,4.86,3.41,4.86,6.28V43h4.51V29.57C606.59,20.39,599.88,19.92,598.54,19.92Z"/></g></g></svg>