<svg xmlns="http://www.w3.org/2000/svg" viewBox="0 0 26.06 18.32"><defs><style>.cls-1{fill:#212851;fill-rule:evenodd;}</style></defs><g id="Layer_2" data-name="Layer 2"><g id="Layer_1-2" data-name="Layer 1"><path class="cls-1" d="M21.41,8.65a4.41,4.41,0,0,0-.89.09,4.72,4.72,0,0,0,0-2.39A4.66,4.66,0,0,0,16.63,3a4.62,4.62,0,0,0-2.93.58A4.81,4.81,0,1,0,4.53,6.43,6.13,6.13,0,0,0,0,12.35c0,.19,0,.38,0,.58L7.56,8.65a1.18,1.18,0,0,0,.56-.73l.15-.56a1.9,1.9,0,0,1-.45-.53,2,2,0,0,1-.23-.71A1.87,1.87,0,0,1,8,4.71a1.89,1.89,0,0,1,.56-.49,1.9,1.9,0,0,1,2.6.72,1.81,1.81,0,0,1,.24.71,1.9,1.9,0,0,1-.06.75,1.78,1.78,0,0,1-.33.66,1.91,1.91,0,0,1-.57.49,1.76,1.76,0,0,1-.82.24L9.26,8.94a1.18,1.18,0,0,1-.54.68l-1.23.7L.29,14.41a5.56,5.56,0,0,0,.36,1l11-6.25A1.93,1.93,0,0,1,11.84,8a1.92,1.92,0,0,1,3.38-.09,1.93,1.93,0,0,1,.23.7,2.1,2.1,0,0,1,0,.75,2.12,2.12,0,0,1-.34.67,2,2,0,0,1-.56.48,1.86,1.86,0,0,1-1.1.24,1.9,1.9,0,0,1-1-.41L1.42,16.56a4.92,4.92,0,0,0,.78.73l7-4,1.23-.69a1.19,1.19,0,0,1,.87-.12l1,.26a1.89,1.89,0,0,1,.59-.53,1.9,1.9,0,0,1,2.6.72,1.81,1.81,0,0,1,.24.71,1.85,1.85,0,0,1-.06.74,2,2,0,0,1-.33.67,1.91,1.91,0,0,1-.57.49,1.9,1.9,0,0,1-2.6-.72,2,2,0,0,1-.24-.74l-.35-.1a1.47,1.47,0,0,0-.47,0,1.21,1.21,0,0,0-.44.15L3.72,18.06a6,6,0,0,0,1.84.26H21.41a5,5,0,0,0,4.65-5A4.65,4.65,0,0,0,21.41,8.65Z"/></g></g></svg>